<?xml version="1.0" encoding="UTF-8"?>
<svg xmlns="http://www.w3.org/2000/svg" width="1536" height="1024" viewBox="0 0 1536 1024">
  <defs>
    <linearGradient id="bgGlow" x1="0" y1="0" x2="0" y2="1">
      <stop offset="0%" stop-color="#ffffff"/>
      <stop offset="100%" stop-color="#f8f9fc"/>
    </linearGradient>
    <pattern id="checker" width="24" height="24" patternUnits="userSpaceOnUse">
      <rect width="24" height="24" fill="#ffffff"/>
      <rect width="12" height="12" fill="#f0f0f0"/>
      <rect x="12" y="12" width="12" height="12" fill="#f0f0f0"/>
    </pattern>
    <filter id="softShadow" x="-20%" y="-20%" width="140%" height="140%">
      <feDropShadow dx="0" dy="6" stdDeviation="8" flood-color="#000000" flood-opacity="0.10"/>
    </filter>
    <filter id="microShadow" x="-20%" y="-20%" width="140%" height="140%">
      <feDropShadow dx="0" dy="2" stdDeviation="2" flood-color="#000000" flood-opacity="0.14"/>
    </filter>
  </defs>

  <rect width="1536" height="1024" fill="url(#bgGlow)"/>

  <g fill="#4a4a4a" font-family="Inter, Arial, Helvetica, sans-serif" font-size="22" letter-spacing="1.2">
    <text x="58" y="58">1. ICON MARK (SQUARE)</text>
    <text x="558" y="58">2. FULL HORIZONTAL LOCKUP</text>
  </g>

  <!-- 1. square icon -->
  <rect x="50" y="80" width="380" height="380" fill="url(#checker)"/>
  <g transform="translate(50 80)">
    <path d="M 30 330 L 40 332 L 107 332 L 118 302 L 129 285 L 137 277 L 152 267 L 169 260 L 196 258 L 224 267 L 245 283 L 263 312 L 268 332 L 346 331 L 325 292 L 314 278 L 287 254 L 249 234 L 229 228 L 202 224 L 173 224 L 147 228 L 117 238 L 93 251 L 76 264 L 57 284 L 40 309 Z" fill="#004a99"/>
    <path d="M 207 202 L 189 183 L 177 191 L 169 190 L 165 186 L 165 178 L 175 163 L 166 162 L 138 145 L 122 140 L 98 138 L 84 140 L 68 146 L 46 163 L 31 191 L 29 202 L 29 298 L 49 270 L 77 244 L 79 229 L 85 213 L 103 194 L 120 189 L 136 191 L 152 197 L 176 212 L 187 216 L 198 211 L 200 208 L 207 208 Z" fill="#004a99"/>
    <path d="M 60 64 L 48 71 L 40 83 L 38 92 L 40 107 L 46 117 L 59 126 L 71 128 L 84 125 L 96 115 L 101 106 L 101 85 L 96 75 L 87 67 L 77 63 Z" fill="#004a99"/>
    <path d="M 170 180 L 171 185 L 175 186 L 185 177 L 189 177 L 214 202 L 234 193 L 250 189 L 263 190 L 276 196 L 287 207 L 295 222 L 299 244 L 325 268 L 347 299 L 345 193 L 341 181 L 332 166 L 316 151 L 301 143 L 287 139 L 260 139 L 232 148 L 205 165 L 193 161 L 185 162 Z" fill="#ff7a00"/>
    <path d="M 295 64 L 287 68 L 276 82 L 274 88 L 275 106 L 280 115 L 287 122 L 295 126 L 313 127 L 319 125 L 331 115 L 337 103 L 336 84 L 331 75 L 318 65 L 312 63 Z" fill="#ff7a00"/>
  </g>

  <!-- 2. full horizontal lockup -->
  <g transform="translate(508 150) scale(0.38)">
    <path d="M 30 330 L 40 332 L 107 332 L 118 302 L 129 285 L 137 277 L 152 267 L 169 260 L 196 258 L 224 267 L 245 283 L 263 312 L 268 332 L 346 331 L 325 292 L 314 278 L 287 254 L 249 234 L 229 228 L 202 224 L 173 224 L 147 228 L 117 238 L 93 251 L 76 264 L 57 284 L 40 309 Z" fill="#004a99"/>
    <path d="M 207 202 L 189 183 L 177 191 L 169 190 L 165 186 L 165 178 L 175 163 L 166 162 L 138 145 L 122 140 L 98 138 L 84 140 L 68 146 L 46 163 L 31 191 L 29 202 L 29 298 L 49 270 L 77 244 L 79 229 L 85 213 L 103 194 L 120 189 L 136 191 L 152 197 L 176 212 L 187 216 L 198 211 L 200 208 L 207 208 Z" fill="#004a99"/>
    <path d="M 60 64 L 48 71 L 40 83 L 38 92 L 40 107 L 46 117 L 59 126 L 71 128 L 84 125 L 96 115 L 101 106 L 101 85 L 96 75 L 87 67 L 77 63 Z" fill="#004a99"/>
    <path d="M 170 180 L 171 185 L 175 186 L 185 177 L 189 177 L 214 202 L 234 193 L 250 189 L 263 190 L 276 196 L 287 207 L 295 222 L 299 244 L 325 268 L 347 299 L 345 193 L 341 181 L 332 166 L 316 151 L 301 143 L 287 139 L 260 139 L 232 148 L 205 165 L 193 161 L 185 162 Z" fill="#ff7a00"/>
    <path d="M 295 64 L 287 68 L 276 82 L 274 88 L 275 106 L 280 115 L 287 122 L 295 126 L 313 127 L 319 125 L 331 115 L 337 103 L 336 84 L 331 75 L 318 65 L 312 63 Z" fill="#ff7a00"/>
  </g>
  <text x="710" y="314" font-family="Inter, Arial, Helvetica, sans-serif" font-size="90" font-weight="500">
    <tspan fill="#004a99">Roozgaar</tspan><tspan fill="#ff7a00">Setu</tspan>
  </text>

  <line x1="50" y1="524" x2="1490" y2="524" stroke="#cfd2d8" stroke-width="2"/>

  <g fill="#4a4a4a" font-family="Inter, Arial, Helvetica, sans-serif" font-size="22" letter-spacing="1.2">
    <text x="58" y="592">3. MONOCHROME VERSION</text>
    <text x="1008" y="592">4. FAVICON / APP ICON (SIMPLIFIED)</text>
  </g>

  <!-- 3. monochrome -->
  <g transform="translate(60 635) scale(0.40)">
    <path d="M 30 330 L 40 332 L 107 332 L 118 302 L 129 285 L 137 277 L 152 267 L 169 260 L 196 258 L 224 267 L 245 283 L 263 312 L 268 332 L 346 331 L 325 292 L 314 278 L 287 254 L 249 234 L 229 228 L 202 224 L 173 224 L 147 228 L 117 238 L 93 251 L 76 264 L 57 284 L 40 309 Z" fill="#0a2f66"/>
    <path d="M 207 202 L 189 183 L 177 191 L 169 190 L 165 186 L 165 178 L 175 163 L 166 162 L 138 145 L 122 140 L 98 138 L 84 140 L 68 146 L 46 163 L 31 191 L 29 202 L 29 298 L 49 270 L 77 244 L 79 229 L 85 213 L 103 194 L 120 189 L 136 191 L 152 197 L 176 212 L 187 216 L 198 211 L 200 208 L 207 208 Z" fill="#0a2f66"/>
    <path d="M 60 64 L 48 71 L 40 83 L 38 92 L 40 107 L 46 117 L 59 126 L 71 128 L 84 125 L 96 115 L 101 106 L 101 85 L 96 75 L 87 67 L 77 63 Z" fill="#0a2f66"/>
    <path d="M 170 180 L 171 185 L 175 186 L 185 177 L 189 177 L 214 202 L 234 193 L 250 189 L 263 190 L 276 196 L 287 207 L 295 222 L 299 244 L 325 268 L 347 299 L 345 193 L 341 181 L 332 166 L 316 151 L 301 143 L 287 139 L 260 139 L 232 148 L 205 165 L 193 161 L 185 162 Z" fill="#0a2f66"/>
    <path d="M 295 64 L 287 68 L 276 82 L 274 88 L 275 106 L 280 115 L 287 122 L 295 126 L 313 127 L 319 125 L 331 115 L 337 103 L 336 84 L 331 75 L 318 65 L 312 63 Z" fill="#0a2f66"/>
  </g>
  <text x="290" y="776" font-family="Inter, Arial, Helvetica, sans-serif" font-size="68" font-weight="500" fill="#0a2f66">RoozgaarSetu</text>

  <line x1="932" y1="570" x2="932" y2="866" stroke="#cfd2d8" stroke-width="2"/>
  <line x1="50" y1="692" x2="1490" y2="692" stroke="#cfd2d8" stroke-width="2"/>

  <!-- 4. app icons -->
  <g transform="translate(1035 640)">
    <rect x="0" y="0" width="160" height="160" rx="32" fill="#ffffff" filter="url(#softShadow)"/>
    <g transform="translate(0 0) scale(0.38)">
      <path d="M 30 330 L 40 332 L 107 332 L 118 302 L 129 285 L 137 277 L 152 267 L 169 260 L 196 258 L 224 267 L 245 283 L 263 312 L 268 332 L 346 331 L 325 292 L 314 278 L 287 254 L 249 234 L 229 228 L 202 224 L 173 224 L 147 228 L 117 238 L 93 251 L 76 264 L 57 284 L 40 309 Z" fill="#004a99"/>
      <path d="M 60 64 L 48 71 L 40 83 L 38 92 L 40 107 L 46 117 L 59 126 L 71 128 L 84 125 L 96 115 L 101 106 L 101 85 L 96 75 L 87 67 L 77 63 Z" fill="#004a99"/>
      <path d="M 295 64 L 287 68 L 276 82 L 274 88 L 275 106 L 280 115 L 287 122 L 295 126 L 313 127 L 319 125 L 331 115 L 337 103 L 336 84 L 331 75 L 318 65 L 312 63 Z" fill="#ff7a00"/>
    </g>
  </g>
  <text x="1115" y="846" text-anchor="middle" font-family="Inter, Arial, Helvetica, sans-serif" font-size="20" fill="#4a4a4a">32x32</text>

  <g transform="translate(1293 684)">
    <rect x="0" y="0" width="84" height="84" rx="18" fill="#ffffff" filter="url(#microShadow)"/>
    <circle cx="22" cy="22" r="8" fill="#004a99"/>
    <circle cx="58" cy="22" r="8" fill="#ff7a00"/>
    <text x="27" y="67" font-family="Inter, Arial, Helvetica, sans-serif" font-size="54" font-weight="700" fill="#004a99">R</text>
  </g>
  <text x="1335" y="846" text-anchor="middle" font-family="Inter, Arial, Helvetica, sans-serif" font-size="20" fill="#4a4a4a">16x16</text>

  <!-- legend -->
  <circle cx="364" cy="962" r="11" fill="#004a99"/>
  <text x="389" y="969" font-family="Inter, Arial, Helvetica, sans-serif" font-size="21" fill="#4a4a4a">Deep Blue (Trust, Reliability)</text>
  <text x="704" y="970" font-family="Inter, Arial, Helvetica, sans-serif" font-size="28" fill="#8b8f97">|</text>
  <circle cx="764" cy="962" r="11" fill="#ff7a00"/>
  <text x="789" y="969" font-family="Inter, Arial, Helvetica, sans-serif" font-size="21" fill="#4a4a4a">Warm Amber (Livelihood, Humanity)</text>
</svg>
